<?xml version="1.0" encoding="utf-8"?>
<!-- Generator: Adobe Illustrator 23.0.1, SVG Export Plug-In . SVG Version: 6.00 Build 0)  -->
<svg version="1.1" xmlns="http://www.w3.org/2000/svg" xmlns:xlink="http://www.w3.org/1999/xlink" x="0px" y="0px"
	 viewBox="0 0 55 55" style="enable-background:new 0 0 55 55;" xml:space="preserve">
<style type="text/css">
	.st0{display:none;}
	.st1{fill:#FFFFFF;stroke:#E6E6E6;stroke-miterlimit:10;}
	.st2{fill:#CD2828;}
	.st3{fill:#BE9155;}
	.st4{opacity:0.79;}
	.st5{opacity:0.38;}
	.st6{fill:#1C4149;}
	.st7{fill:#9F8751;}
	.st8{fill:#234F5F;}
	.st9{fill:#2F786E;}
	.st10{fill:#2E5453;}
	.st11{fill:#EEE2AD;}
	.st12{fill:#FFFFFF;}
	.st13{fill:#39535B;}
	.st14{fill:#9B6F2D;}
	.st15{fill:none;stroke:#B6B6B6;stroke-miterlimit:10;}
	.st16{fill:#364F59;}
	.st17{fill:#626262;}
	.st18{fill:#9B6E2C;}
	.st19{fill:#B6B6B6;}
	.st20{fill:#003C55;}
	.st21{fill:#E8EAEA;}
	.st22{fill:#1B1C1C;}
	.st23{fill:#E87D1C;}
	.st24{fill:#CDAE2B;}
	.st25{fill:#41A146;}
</style>
<g id="Camada_2" class="st0">
</g>
<g id="Camada_1">
	<g>
		<defs>
			<rect id="SVGID_7_" x="-3794.1" y="-852.4" width="707.1" height="615.1"/>
		</defs>
		<clipPath id="SVGID_2_">
			<use xlink:href="#SVGID_7_"  style="overflow:visible;"/>
		</clipPath>
		<g style="clip-path:url(#SVGID_2_);">
			
				<image style="overflow:visible;" width="1928" height="1040" xlink:href="242223ED.jpg"  transform="matrix(12.1546 0 0 12.1546 -10200.3916 -8870.0449)">
			</image>
		</g>
	</g>
	<g>
		<path class="st12" d="M2.7,52.5c-0.3,0-0.2-0.2-0.2-0.4c0.2-0.9,0.5-1.9,0.8-2.8c1.2-4.3,2.3-8.6,3.5-12.9C6.9,36,7,35.7,7.3,35.5
			C15.5,27.2,23.8,19,32,10.7c0.4-0.4,0.6-0.3,0.9,0c3.8,3.8,7.6,7.6,11.4,11.4c0.4,0.4,0.4,0.6,0,0.9C36,31.3,27.8,39.5,19.6,47.7
			c-0.3,0.3-0.6,0.5-1,0.6C13.4,49.7,8.2,51,3.1,52.4C3,52.5,2.9,52.5,2.7,52.5z"/>
		<path class="st12" d="M43.9,2.5c4.3,0,7.9,3.2,8.5,7.4c0.4,2.9-0.6,5.3-2.5,7.5c-0.8,0.9-1.8,1.8-2.7,2.7c-0.3,0.3-0.4,0.3-0.7,0
			c-3.8-3.9-7.7-7.7-11.5-11.6c-0.2-0.2-0.4-0.3-0.1-0.6c1.4-1.4,2.7-2.9,4.4-4C40.7,3,42.2,2.5,43.9,2.5z"/>
	</g>
</g>
</svg>
